<svg xmlns="http://www.w3.org/2000/svg" viewBox="0 0 1924.37 1087.38"><defs><style>.cls-1,.cls-2{fill:none;stroke:#000;stroke-width:4px;}.cls-1{stroke-miterlimit:10;}.cls-2{stroke-linecap:round;stroke-linejoin:round;}</style>
</defs>
<title>shapes_completed</title>
<g id="Front">
<path d="M1916.5,3.5v1072H4.5V3.5h1912m4-4H.5v1080h1920V-.5Z" transform="translate(1.73 2.65)"/>
<line class="cls-1" x1="2.23" y1="2.15" x2="1922.23" y2="1082.15"/>
</g>

<g id="First_Click" data-name="First Click">
<line class="cls-1" x1="1921.73" y1="2.65" x2="1450.73" y2="817.65"/>
<line class="cls-1" x1="474.41" y1="267.74" x2="1.73" y2="1085.65"/>
</g>

<g id="Second_Click" data-name="Second Click">
<line class="cls-1" x1="1450.73" y1="817.65" x2="1450.73" y2="2.65"/>
<line class="cls-1" x1="474.73" y1="1085.65" x2="474.41" y2="267.74"/>
<line class="cls-1" x1="472.73" y1="270.65" x2="1.73" y2="270.65"/>
<line class="cls-1" x1="1921.73" y1="817.65" x2="1450.73" y2="817.65"/>
</g>

<g id="Third_Click" data-name="Third Click"><line class="cls-1" x1="1.73" y1="270.65" x2="118.73" y2="68.65"/>
<line class="cls-1" x1="1806.3" y1="1016.93" x2="1921.73" y2="817.65"/>
<line class="cls-1" x1="1.73" y1="270.65" x2="354.73" y2="474.65"/>
<line class="cls-1" x1="1568.73" y1="613.65" x2="1921.73" y2="817.65"/>
<line class="cls-1" x1="474.73" y1="1085.65" x2="119.73" y2="880.65"/>
<line class="cls-1" x1="1805.73" y1="207.65" x2="1450.73" y2="2.65"/>
<line class="cls-1" x1="474.73" y1="1085.65" x2="830.73" y2="468.65"/>
<line class="cls-1" x1="1094.73" y1="619.65" x2="1450.73" y2="2.65"/>
</g>

<g id="Fourth_Click" data-name="Fourth Click"><line class="cls-1" x1="118.73" y1="68.65" x2="118.73" y2="270.65"/>
<line class="cls-1" x1="1806.3" y1="817.65" x2="1806.3" y2="1016.93"/>
<line class="cls-1" x1="354.65" y1="271.65" x2="354.65" y2="473.65"/>
<line class="cls-1" x1="1569.11" y1="615.65" x2="1569.11" y2="817.65"/>
<line class="cls-1" x1="831.73" y1="469.65" x2="831.73" y2="1082.65"/>
<line class="cls-1" x1="121.73" y1="880.65" x2="121.73" y2="1082.65"/>
<line class="cls-1" x1="1802.73" y1="2.65" x2="1802.73" y2="205.65"/>
<line class="cls-1" x1="353.73" y1="475.65" x2="1.73" y2="475.65"/>
<line class="cls-1" x1="473.73" y1="880.65" x2="121.73" y2="880.65"/>
<line class="cls-1" x1="1921.73" y1="611.65" x2="1569.73" y2="611.65"/>
<line class="cls-1" x1="828.73" y1="469.65" x2="476.73" y2="469.65"/>
<line class="cls-1" x1="1802.73" y1="205.65" x2="1450.73" y2="205.65"/>
<line class="cls-1" x1="1450.73" y1="616.65" x2="1098.73" y2="616.65"/>
<line class="cls-2" x1="1094.73" y1="2.65" x2="1094.73" y2="616.65"/>
<line class="cls-2" x1="1094.73" y1="2.65" x2="1094.73" y2="616.65"/>
</g>

<g id="Fifth_Click" data-name="Fifth Click">
<line class="cls-1" x1="1.73" y1="475.65" x2="265.73" y2="628.65"/><line class="cls-1" x1="208.73" y1="725.65" x2="472.73" y2="878.65"/><line class="cls-1" x1="474.73" y1="469.65" x2="740.73" y2="623.65"/><line class="cls-1" x1="565.73" y1="928.65" x2="831.73" y2="1082.65"/><line class="cls-1" x1="1095.73" y1="5.65" x2="1359.73" y2="158.65"/><line class="cls-1" x1="831.73" y1="1082.65" x2="1093.23" y2="617.52"/><line class="cls-2" x1="830.73" y1="468.65" x2="1094.73" y2="2.65"/><line class="cls-1" x1="1186.73" y1="461.65" x2="1450.73" y2="614.65"/><line class="cls-1" x1="1450.73" y1="205.65" x2="1714.73" y2="358.65"/><line class="cls-1" x1="1658.57" y1="458.65" x2="1922.57" y2="611.65"/></g><g id="Sixth_Click" data-name="Sixth Click"><line class="cls-1" x1="473.73" y1="725.26" x2="208.13" y2="725.26"/><line class="cls-1" x1="266.53" y1="629.65" x2="0.93" y2="629.65"/><line class="cls-1" x1="740.53" y1="624.64" x2="474.93" y2="624.64"/><line class="cls-1" x1="831.53" y1="928.14" x2="565.93" y2="928.14"/><line class="cls-1" x1="1095.53" y1="616.65" x2="829.93" y2="616.65"/><line class="cls-2" x1="1095.53" y1="616.65" x2="1095.53" y2="1082.65"/><line class="cls-2" x1="829.93" y1="2.65" x2="829.93" y2="468.65"/><line class="cls-1" x1="1451.53" y1="459.65" x2="1185.93" y2="459.65"/><line class="cls-1" x1="1715.53" y1="360.59" x2="1449.93" y2="360.59"/><line class="cls-1" x1="1923.37" y1="458.66" x2="1657.77" y2="458.66"/><line class="cls-1" x1="1095.53" y1="469.65" x2="829.93" y2="469.65"/><line class="cls-1" x1="1360.53" y1="159.57" x2="1094.93" y2="159.57"/></g><g id="Seventh_Click" data-name="Seventh Click"><line class="cls-1" x1="1.73" y1="630.65" x2="198.71" y2="744.8"/><line class="cls-1" x1="1726.39" y1="344.51" x2="1923.37" y2="458.66"/><line class="cls-1" x1="277.95" y1="611.1" x2="474.93" y2="725.26"/><line class="cls-1" x1="1450.73" y1="360.59" x2="1647.71" y2="474.74"/><line class="cls-1" x1="476.73" y1="624.64" x2="673.71" y2="738.8"/><line class="cls-1" x1="1255.73" y1="344.51" x2="1452.7" y2="458.66"/><line class="cls-1" x1="632.95" y1="813.48" x2="829.93" y2="927.64"/><line class="cls-1" x1="1094.73" y1="159.57" x2="1291.71" y2="273.73"/><line class="cls-1" x1="831.53" y1="616.65" x2="1028.51" y2="730.8"/><line class="cls-1" x1="897.31" y1="353.07" x2="1094.29" y2="467.22"/><line class="cls-1" x1="831.53" y1="1.73" x2="1028.51" y2="115.89"/><line class="cls-1" x1="896.56" y1="967.33" x2="1095.53" y2="1082.65"/><line class="cls-1" x1="1094.93" y1="1084.65" x2="1298.73" y2="731.43"/><line class="cls-1" x1="627.34" y1="353.77" x2="829.93" y2="2.65"/></g><g id="Eight_Click" data-name="Eight Click"><line class="cls-1" x1="626.02" y1="2.65" x2="626.02" y2="354.33"/><line class="cls-1" x1="1299.85" y1="732.02" x2="1299.85" y2="1082.65"/></g><g id="Ninth_Click" data-name="Ninth Click"><line class="cls-2" x1="476.83" y1="268.15" x2="626.02" y2="2.65"/><line class="cls-2" x1="1299.85" y1="1083.16" x2="1449.04" y2="817.65"/></g><g id="Tenth_Click" data-name="Tenth Click"><line class="cls-1" x1="474.93" y1="2.65" x2="474.93" y2="270.65"/><line class="cls-1" x1="1451.53" y1="816.4" x2="1451.53" y2="1084.4"/></g></svg>